# xmcd
#
# Track frame offsets:
#	150
#	24015
#	48207
#	70395
#	86407
#	113890
#	121532
#	128787
#	148627
#	172662
#
# Disc length: 2518 seconds
#
# Revision: 15
# Processed by: cddbd v1.5.2PL0 Copyright (c) Steve Scherf et al.
# Submitted via: Jack! The Knife 19 Blackthorn
#
DISCID=7209d40a
DTITLE=Triumph - Thunder Seven
DYEAR=1984
DGENRE=Hard Rock
TTITLE0=Spellbound
TTITLE1=Rock Out, Roll On
TTITLE2=Cool Down
TTITLE3=Follow Your Heart
TTITLE4=Time Goes By
TTITLE5=Midsummer's Daydream
TTITLE6=Time Canon
TTITLE7=Killing Time
TTITLE8=Stranger In A Strange Land
TTITLE9=Little Boy Blues
EXTD=Eddie Kramer and Triumph
EXTT0=Moore, Levine, Emmett
EXTT1=Moore, Levine, Emmett
EXTT2=Moore, Levine, Emmett
EXTT3=Moore, Levine, Emmett
EXTT4=Moore, Levine, Emmett
EXTT5=Rik Emmett
EXTT6=Moore, Levine, Emmett
EXTT7=Moore, Levine, Emmett
EXTT8=Moore, Levine, Emmett
EXTT9=Moore, Levine, Emmett
PLAYORDER=
